<?xml version="1.0" encoding="UTF-8"?>
<svg version="1.1" xmlns="http://www.w3.org/2000/svg" viewBox="245 210 558 532" width="1024" height="1024">
<path d="M0 0 C1.42685366 -0.0056153 2.85370271 -0.01252176 4.28054458 -0.02059597 C8.17384357 -0.03883234 12.06694818 -0.03856331 15.96028006 -0.03501284 C20.16957956 -0.03439786 24.37881822 -0.05098457 28.58808899 -0.06518555 C36.82232399 -0.09003796 45.05649455 -0.09834686 53.29076394 -0.10002268 C59.98332959 -0.10145057 66.67587405 -0.10762675 73.368433 -0.11712456 C92.35437611 -0.14351951 111.34026847 -0.15738559 130.32623007 -0.15513314 C131.85951845 -0.15495333 131.85951845 -0.15495333 133.42378235 -0.1547699 C134.44722544 -0.15464726 135.47066854 -0.15452461 136.52512506 -0.15439826 C153.12838197 -0.15317769 169.73143518 -0.18192242 186.33463313 -0.224185 C203.39370175 -0.26726486 220.45267094 -0.28799645 237.51179534 -0.28540367 C247.08504561 -0.28440776 256.65808196 -0.29264972 266.23128319 -0.32493782 C274.37718759 -0.35223713 282.52278095 -0.35879132 290.66871127 -0.33840955 C294.82381838 -0.3286078 298.9783285 -0.32846406 303.13337898 -0.3544693 C306.93881084 -0.37804171 310.74317159 -0.3737974 314.54857705 -0.3476169 C316.57321898 -0.3408268 318.59789393 -0.36351735 320.62240714 -0.38733584 C328.46264605 -0.29800928 333.05542293 0.77798079 338.63349915 6.40113831 C339.59256165 7.30734924 340.55162415 8.21356018 341.53974915 9.14723206 C342.39568665 10.03539612 343.25162415 10.92356018 344.13349915 11.83863831 C347.14063425 14.91998548 350.15255241 17.93501301 353.44599915 20.71363831 C358.0095401 24.59970514 362.1693577 28.88401207 366.35932922 33.16407776 C369.27320764 36.12118016 372.22807121 38.95199425 375.38349915 41.65113831 C381.26048002 46.72413914 386.62330519 52.33369481 392.07002258 57.85816956 C397.20325553 63.05797685 402.36173025 68.15584094 407.91767883 72.90797424 C410.31939767 74.99803008 412.53757312 77.24657397 414.75849915 79.52613831 C418.24568963 83.05611641 421.78131642 86.28270467 425.63349915 89.40113831 C428.00849915 91.58863831 428.00849915 91.58863831 429.63349915 93.40113831 C429.63349915 94.06113831 429.63349915 94.72113831 429.63349915 95.40113831 C430.21003235 95.65097473 430.78656555 95.90081116 431.38056946 96.15821838 C433.94813266 97.57471863 435.63339682 99.19035797 437.68037415 101.28785706 C438.82506165 102.4489801 438.82506165 102.4489801 439.99287415 103.63356018 C440.7817804 104.44373596 441.57068665 105.25391174 442.38349915 106.08863831 C447.38796425 111.20570387 452.41101131 116.18467304 457.8429718 120.84864807 C460.30442824 122.98287243 462.63357316 125.23215272 464.94599915 127.52613831 C465.76713196 128.33309143 466.58826477 129.14004456 467.4342804 129.97145081 C472.16950494 135.2029067 473.0636352 139.14076694 472.95820618 146.11080933 C472.95709178 146.98740068 472.95597738 147.86399204 472.95482922 148.76714677 C472.94772419 151.70438307 472.91934476 154.64103482 472.89131165 157.57814026 C472.88231977 159.68409164 472.87480303 161.79004976 472.86865234 163.89601135 C472.85326576 168.43154459 472.82942372 172.96692865 472.79966736 177.50238991 C472.75468819 184.67545171 472.74091485 191.84835821 472.73384094 199.02154541 C472.71031451 219.41939698 472.66959104 239.81687864 472.54121399 260.21437073 C472.47056723 271.47960842 472.43898765 282.74423554 472.45150375 294.00969666 C472.45642608 299.97076335 472.44085956 305.9302421 472.37696838 311.89100075 C472.31697721 317.49848244 472.30794161 323.10373235 472.33779335 328.71143341 C472.33959434 330.76738685 472.32258788 332.82345724 472.28523827 334.87907219 C471.70120648 345.78095487 471.70120648 345.78095487 476.0151825 355.27310753 C478.85073919 357.42682069 478.85073919 357.42682069 481.84545898 358.90416241 C490.1074484 363.34025311 494.42517356 372.99482785 497.63349915 381.40113831 C498.18650696 382.74498596 498.18650696 382.74498596 498.75068665 384.11598206 C499.936733 388.52954394 499.92426457 392.66489606 499.88349915 397.21363831 C499.89123352 398.06506409 499.8989679 398.91648987 499.90693665 399.79371643 C499.86696833 412.91331754 496.0194897 424.2899049 487.63349915 434.40113831 C487.01474915 435.21904846 487.01474915 435.21904846 486.38349915 436.05348206 C483.27723469 440.06914631 479.8132434 442.61464213 475.63349915 445.40113831 C476.09056861 448.05695245 476.6582145 450.46704591 477.6061554 452.99488831 C482.94222457 467.22440611 482.69932197 483.14935868 476.39912415 497.01051331 C469.48448056 510.28907665 458.06757094 519.63908847 443.99897003 524.5100174 C435.35562421 527.09514515 426.97293406 526.95759532 418.03596497 526.90907288 C416.17372034 526.91368876 414.31147937 526.92004628 412.44924593 526.92798185 C407.3615053 526.94460377 402.2740667 526.93646137 397.18632531 526.92403698 C391.68793763 526.9149595 386.18960065 526.92896958 380.69122314 526.93995667 C369.93156821 526.95771769 359.17202506 526.95391265 348.41236579 526.9423061 C339.66563812 526.93326255 330.91894171 526.93205177 322.17221069 526.93640137 C320.30295096 526.93732077 320.30295096 526.93732077 318.39592841 526.93825874 C315.86413585 526.93953767 313.3323433 526.94083453 310.80055076 526.9421491 C287.75109625 526.95322306 264.70169445 526.9417504 241.65225274 526.92077871 C220.63083223 526.90179764 199.60950866 526.90349621 178.58808899 526.92262268 C154.94598164 526.94406193 131.30391695 526.95244925 107.661798 526.94017363 C105.13946121 526.93889947 102.61712441 526.93764198 100.0947876 526.93640137 C98.85383796 526.93578427 97.61288833 526.93516716 96.33433416 526.93453136 C87.60087707 526.93108162 78.86745444 526.93689872 70.13400269 526.94631958 C59.48688121 526.95755257 48.83987766 526.95447209 38.19276965 526.9331966 C32.76328838 526.92270379 27.33400354 526.91853429 21.90452385 526.93179321 C16.92905473 526.94375943 11.9539631 526.93708493 6.97852796 526.915883 C5.18394988 526.91143484 3.38933956 526.91364277 1.59478241 526.92338616 C-14.20062644 527.00253098 -27.49253229 524.86932734 -39.3625946 513.48707581 C-47.11710437 505.11554053 -51.69836061 495.85399356 -51.60700989 484.35258484 C-51.60871874 483.55933268 -51.61042759 482.76608053 -51.61218822 481.94879043 C-51.61547318 479.30016372 -51.60449587 476.65179233 -51.59355164 474.00318909 C-51.59298731 472.10085048 -51.59330451 470.19851145 -51.59443665 468.2961731 C-51.59501031 463.13756378 -51.58325368 457.97904754 -51.56928873 452.82045984 C-51.55678375 447.42726266 -51.55561105 442.03406333 -51.55323792 436.64085388 C-51.54702247 426.43060976 -51.53061076 416.22040848 -51.51053894 406.01018322 C-51.48818196 394.3851201 -51.47718701 382.76005493 -51.46714807 371.13497567 C-51.44624461 347.2236728 -51.41106735 323.31240795 -51.36650085 299.40113831 C-49.55485191 299.39233894 -49.55485191 299.39233894 -47.706604 299.38336182 C-36.30426533 299.3260583 -24.90211598 299.25325666 -13.49997044 299.16542339 C-7.63851875 299.12076558 -1.77713584 299.08149918 4.08442688 299.05470276 C9.74501701 299.02862426 15.40534183 298.98818928 21.06576729 298.93795204 C23.22138726 298.92131413 25.37705309 298.90978076 27.5327282 298.9035244 C30.56065824 298.89384997 33.58791424 298.86575023 36.61567688 298.83351135 C37.49969177 298.83494644 38.38370667 298.83638153 39.29450989 298.83786011 C48.64942347 298.69771791 57.75207848 295.95981227 64.63349915 289.40113831 C66.99157005 286.23826504 69.1021422 282.92199476 71.09614563 279.51930237 C74.07271529 274.5914602 74.07271529 274.5914602 77.43037415 273.45191956 C78.1574054 273.43516174 78.88443665 273.41840393 79.63349915 273.40113831 C84.09723999 280.23992617 87.8038602 287.378474 91.50849915 294.65113831 C100.44364454 315.26767424 100.44364454 315.26767424 117.13349915 328.58863831 C121.66870395 328.34568091 125.06982042 327.25208129 128.63349915 324.40113831 C132.87759995 319.24241733 135.10945217 314.20496493 137.19599915 307.90113831 C137.47379211 307.10449768 137.75158508 306.30785706 138.03779602 305.48707581 C142.33498761 292.88198048 145.32073332 279.83408898 148.44599915 266.90113831 C148.61547058 266.20357422 148.78494202 265.50601013 148.95954895 264.78730774 C150.9011874 256.79143545 152.79089865 248.7870576 154.5670929 240.75270081 C154.79879936 239.70810699 154.79879936 239.70810699 155.03518677 238.64241028 C155.76738182 235.33562901 156.49024066 232.02747876 157.19917297 228.71559143 C158.81219811 221.36047466 160.8457851 214.39905205 163.63349915 207.40113831 C164.29349915 207.40113831 164.95349915 207.40113831 165.63349915 207.40113831 C167.92853512 213.88386979 169.6960643 220.3950317 171.25849915 227.08863831 C171.50865784 228.13809631 171.75881653 229.18755432 172.01655579 230.26881409 C173.44932766 236.29562774 174.84778004 242.32926054 176.22067261 248.36993408 C180.8885367 269.81935222 180.8885367 269.81935222 187.32099915 290.77613831 C187.56970764 291.46884827 187.81841614 292.16155823 188.07466125 292.8752594 C190.66950773 299.46224166 194.69612879 305.43722268 200.63349915 309.40113831 C208.4570507 311.51869602 215.65832839 310.39521949 222.63349915 306.40113831 C231.44252504 299.54841727 238.69670258 291.10313833 245.97724915 282.69410706 C255.41663692 271.94893731 255.41663692 271.94893731 260.78974915 271.03395081 C266.25984211 270.72397887 269.37642944 271.79188355 273.63349915 275.40113831 C276.87265583 278.39877892 279.89845586 281.39657914 282.50849915 284.96363831 C285.67185743 288.59219633 289.57530174 290.86659625 293.63349915 293.40113831 C294.90193665 294.26738831 294.90193665 294.26738831 296.19599915 295.15113831 C311.4026423 302.94941685 335.84566477 298.28582522 352.04096985 295.89894104 C355.67485495 295.39540779 359.26079678 295.11600021 362.92256165 294.90113831 C364.28975014 294.81782129 365.65693761 294.73448746 367.02412415 294.65113831 C369.14809121 294.52515694 371.2721227 294.40034168 373.39619446 294.27613831 C375.4676669 294.15400635 377.53885719 294.02772185 379.61006165 293.90113831 C380.83805481 293.82895081 382.06604797 293.75676331 383.33125305 293.68238831 C386.48501814 293.48184565 386.48501814 293.48184565 388.94296265 292.91360474 C391.96822975 292.33738217 394.91036861 292.11139291 397.98432922 291.92042542 C399.24525894 291.84041794 400.50618866 291.76041046 401.80532837 291.67797852 C403.17122459 291.59473986 404.53712537 291.51157612 405.9030304 291.42848206 C407.30837842 291.34052762 408.71370759 291.25227147 410.11901855 291.16372681 C413.80623932 290.93221552 417.49370101 290.70478948 421.18122864 290.47822571 C424.94867662 290.24602193 428.71588127 290.00993824 432.48310852 289.77418518 C439.86633992 289.31271453 447.24983027 288.8555613 454.63349915 288.40113831 C451.37082005 287.67881991 448.32454383 287.26817534 444.98506165 287.22755432 C444.07891617 287.21398392 443.17277069 287.20041351 442.23916626 287.18643188 C441.25554611 287.17607407 440.27192596 287.16571625 439.25849915 287.15504456 C437.08296011 287.12327518 434.90742309 287.09136739 432.73188782 287.05934143 C430.99967484 287.03625916 430.99967484 287.03625916 429.23246765 287.01271057 C406.75302512 286.70620131 384.28936605 286.14719871 361.82099915 285.40113831 C360.5358844 285.35925385 359.25076965 285.31736938 357.92671204 285.2742157 C346.34005597 284.89441517 334.75362751 284.50834268 323.1764679 283.89723206 C322.4666124 283.86125916 321.7567569 283.82528625 321.02539062 283.78822327 C308.84802268 283.09603465 300.88661878 277.28629369 292.8170929 268.40113831 C291.88638537 267.26501577 290.95786746 266.12709467 290.03193665 264.98707581 C283.25796105 257.30485767 272.93213182 252.32938048 262.75849915 251.65113831 C253.62678742 252.08255776 244.83658429 256.88166871 238.32099915 263.15113831 C237.06082028 264.5402907 235.83297296 265.95924452 234.63349915 267.40113831 C233.90775696 268.27125549 233.18201477 269.14137268 232.4342804 270.03785706 C230.90553997 271.89881951 229.3859097 273.76730478 227.87568665 275.64332581 C217.04156174 288.96892194 217.04156174 288.96892194 212.19599915 289.83863831 C209.63349915 289.40113831 209.63349915 289.40113831 207.5905304 287.23316956 C204.09889529 282.18040418 203.09750177 276.29583941 201.63349915 270.40113831 C201.43031067 269.58725647 201.22712219 268.77337463 201.01777649 267.93482971 C198.57944493 258.09227402 196.2430658 248.22846311 194.07652283 238.32260132 C189.45987295 216.01874155 189.45987295 216.01874155 182.44599915 194.40113831 C182.1496759 193.65630188 181.85335266 192.91146545 181.54804993 192.14405823 C179.01123045 186.31823084 175.48711179 180.88997969 169.75849915 177.90113831 C164.25815347 177.021083 160.37079228 177.39350829 155.50849915 180.21363831 C136.92555145 198.1454315 134.53239838 238.51597789 129.40864563 262.2412262 C127.99802651 268.76104604 126.56688951 275.27530098 125.07099915 281.77613831 C124.88521301 282.6141095 124.69942688 283.45208069 124.50801086 284.31544495 C123.17633598 290.01384148 121.18212757 295.13675829 118.63349915 300.40113831 C114.23172426 298.93388001 113.19683083 295.48504818 111.13349915 291.58863831 C110.24813161 289.9544971 109.36271297 288.32038359 108.47724915 286.68629456 C108.01576477 285.826651 107.5542804 284.96700745 107.07881165 284.08131409 C104.63188897 279.54376052 102.12746728 275.03794584 99.63349915 270.52613831 C98.71569742 268.86270157 97.7989567 267.19867878 96.88349915 265.53395081 C96.4967804 264.83157288 96.11006165 264.12919495 95.71162415 263.40553284 C94.9702986 262.02729852 94.27031995 260.62627547 93.6061554 259.20924377 C92.32589837 256.82932823 91.09251701 256.45500311 88.63349915 255.40113831 C87.89228821 254.89840393 87.15107727 254.39566956 86.3874054 253.87770081 C80.82646716 250.89609137 74.13211707 251.3848731 68.17256165 253.11598206 C61.51079637 256.68736163 58.20078704 263.43857481 54.70137024 269.86354065 C51.21952073 276.11143129 47.64185772 280.06501878 40.63349915 282.40113831 C37.69677406 282.49278486 34.78420469 282.52709229 31.84761047 282.5146637 C30.50096062 282.51488274 30.50096062 282.51488274 29.12710571 282.5151062 C26.15655612 282.51440895 23.18606905 282.50662527 20.2155304 282.49879456 C18.1571557 282.49692971 16.09878057 282.49550612 14.04040527 282.49450684 C8.62019121 282.49068689 3.2000039 282.48086104 -2.22019958 282.46980286 C-7.75008278 282.45957752 -13.2799703 282.45500681 -18.80986023 282.44996643 C-29.66208553 282.43923833 -40.51429097 282.42216815 -51.36650085 282.40113831 C-51.43498433 251.23242239 -51.48805345 220.06372643 -51.51969684 188.89495311 C-51.52344882 185.21260717 -51.5273318 181.53026137 -51.53129578 177.84791565 C-51.53208271 177.11484752 -51.53286964 176.38177939 -51.53368042 175.62649707 C-51.54672332 163.76715345 -51.57037099 151.90785359 -51.59795924 140.0485359 C-51.62604453 127.87373674 -51.64268371 115.69896045 -51.64876634 103.52413023 C-51.65287631 96.01564105 -51.66584279 88.5072756 -51.69025026 80.99882452 C-51.70802903 75.23485416 -51.7098586 69.47096252 -51.7058239 63.70697021 C-51.70664795 61.34715388 -51.71259829 58.98733277 -51.72411728 56.6275444 C-51.7391009 53.3991241 -51.73543277 50.1712279 -51.7272644 46.9427948 C-51.73600293 46.01474993 -51.74474145 45.08670507 -51.75374478 44.13053763 C-51.67164842 32.07923111 -47.35327501 21.49012944 -39.11650085 12.65113831 C-27.72371254 2.05784391 -15.09864195 -0.05375622 0 0 Z " fill="#674CA7" transform="translate(300.3665008544922,213.59886169433594)"/>
<path d="M0 0 C0.79921875 -0.00773438 1.5984375 -0.01546875 2.421875 -0.0234375 C16.35955577 0.02166826 27.9250809 4.98575954 38.04296875 14.61328125 C42.07847646 18.73426113 45.99773061 22.95400082 49.86328125 27.234375 C56.19886721 34.21422044 63.06435788 40.77304726 70.75 46.25 C78.38398331 51.87664109 84.8822003 59.70609688 86.625 69.25 C87.33272968 84.30982924 86.25365986 94.34542302 76.06640625 106.0390625 C69.17028095 112.74601728 59.66907451 115.52617593 50.25 115.8125 C41.16459123 115.49272371 32.53033554 113.38736463 24.19140625 109.75390625 C3.49526555 101.026618 -14.46759515 105.83165697 -35.01953125 112.41796875 C-44.89338039 114.86631551 -56.45058541 114.37913196 -65.375 109.25 C-71.70853939 104.6772744 -76.90803676 99.77922885 -79.375 92.25 C-79.72498047 91.198125 -79.72498047 91.198125 -80.08203125 90.125 C-83.08634168 78.6504724 -81.94542341 66.00607007 -76.03125 55.75390625 C-72.36990336 50.21871003 -68.52681105 46.313607 -63.3125 42.1875 C-54.81828397 35.41993907 -47.64460221 27.23759168 -40.75 18.875 C-30.46341246 7.0136756 -15.58048731 -0.14933374 0 0 Z " fill="#D3BDF2" transform="translate(676.375,608.75)"/>
<path d="M0 0 C3.08532832 1.47317591 5.17505983 2.94646713 7.56640625 5.40625 C8.21673828 6.06753906 8.86707031 6.72882813 9.53710938 7.41015625 C10.20548828 8.09980469 10.87386719 8.78945312 11.5625 9.5 C12.89483725 10.86682728 14.22938615 12.2315031 15.56640625 13.59375 C16.15365479 14.19896484 16.74090332 14.80417969 17.34594727 15.42773438 C19.11908186 17.20303483 19.11908186 17.20303483 22 19 C22 19.66 22 20.32 22 21 C22.57562683 21.24998245 23.15125366 21.4999649 23.74432373 21.75752258 C26.31728011 23.17476505 28.02519722 24.79186232 30.09082031 26.87963867 C30.88554749 27.6777446 31.68027466 28.47585052 32.49908447 29.29814148 C33.35016785 30.16268448 34.20125122 31.02722748 35.078125 31.91796875 C36.40623199 33.2538781 36.40623199 33.2538781 37.76116943 34.61677551 C40.11577764 36.98618777 42.46624855 39.35954285 44.81439209 41.73535156 C48.10391159 45.06277165 51.39842732 48.38521159 54.69598389 51.70466614 C56.44852819 53.46934753 58.19839351 55.23669491 59.94512939 57.00712585 C64.15243161 61.24846289 68.43200736 65.29559696 72.9619751 69.18806458 C77.01788439 72.79402921 80.79209075 76.69201349 84.609375 80.546875 C85.49860657 81.43989319 86.38783813 82.33291138 87.30401611 83.25299072 C90.12179211 86.08290083 92.93639325 88.9159464 95.75 91.75 C99.47092655 95.49781986 103.19545339 99.24201656 106.921875 102.984375 C107.77295837 103.84375671 108.62404175 104.70313843 109.50091553 105.58856201 C110.2956427 106.38659241 111.09036987 107.1846228 111.90917969 108.00683594 C112.6045282 108.70742126 113.29987671 109.40800659 114.01629639 110.12982178 C115.96839879 112.05226542 115.96839879 112.05226542 118.25567627 113.62457275 C118.8313031 114.07846375 119.40692993 114.53235474 120 115 C120 115.66 120 116.32 120 117 C121.98 117.99 121.98 117.99 124 119 C124 119.66 124 120.32 124 121 C111.00403897 121.11607391 98.00820216 121.20480708 85.01182747 121.25906086 C78.97644813 121.28510578 72.9414246 121.32041127 66.90625 121.37719727 C61.07718301 121.431698 55.24845733 121.46145891 49.41915512 121.47438622 C47.20007839 121.48359362 44.98101941 121.50157349 42.76208878 121.52865028 C39.64323446 121.56517986 36.52577358 121.56993526 33.40673828 121.56762695 C32.49826645 121.58560333 31.58979462 121.60357971 30.65379333 121.62210083 C22.37761032 121.55622955 14.61361396 118.26071241 8.37890625 112.71875 C3.51187058 106.65218996 -0.13062709 98.75407663 -0.12025452 90.91241455 C-0.12162918 90.10757126 -0.12300385 89.30272797 -0.12442017 88.47349548 C-0.12082489 87.59955643 -0.11722961 86.72561737 -0.11352539 85.82519531 C-0.11367142 84.898022 -0.11381744 83.97084869 -0.1139679 83.01557922 C-0.11327162 79.95307063 -0.10549249 76.89062296 -0.09765625 73.828125 C-0.09579106 71.7039188 -0.09436763 69.57971216 -0.09336853 67.45550537 C-0.08955131 61.86597505 -0.07972778 56.27647073 -0.06866455 50.68695068 C-0.05843337 44.98271028 -0.05386725 39.27846568 -0.04882812 33.57421875 C-0.03810482 22.38280108 -0.02103791 11.1914027 0 0 Z " fill="#A78FCF" transform="translate(625,232)"/>
<path d="M0 0 C6.66249263 5.54491322 9.75858747 11.41495551 11.50390625 19.82421875 C12.57727421 32.48996069 11.64122647 42.10846807 3.81640625 52.51171875 C-0.90245892 57.06091686 -6.13386052 59.29388066 -12.68359375 59.76171875 C-20.46308507 59.2060408 -24.90877068 56.0263065 -30.18359375 50.51171875 C-36.20759586 43.15249968 -38.90910408 33.56400782 -38.51953125 24.109375 C-37.18109499 13.75983881 -32.96574613 6.42772938 -25.18359375 -0.48828125 C-17.0569371 -5.98535716 -8.05368642 -5.67825568 0 0 Z " fill="#D3BDF3" transform="translate(607.18359375,581.48828125)"/>
<path d="M0 0 C7.91645829 4.67025102 12.63587878 11.57551207 15.64453125 20.12890625 C17.93894033 29.30654256 17.36613129 39.80548318 13.046875 48.25390625 C9.05624746 54.72776724 5.18855489 60.01796386 -2.35546875 62.12890625 C-8.79819986 63.13409894 -14.46550521 63.3679938 -19.91796875 59.44140625 C-27.44017991 52.67614715 -31.95526361 44.86312742 -32.55859375 34.7109375 C-32.70388478 23.02711729 -31.51348129 13.99631119 -23.35546875 5.12890625 C-16.92373291 -1.11640247 -8.67293484 -3.20740376 0 0 Z " fill="#D2BCF2" transform="translate(717.35546875,537.87109375)"/>
<path d="M0 0 C7.35491293 4.17249868 11.94163394 11.29424462 14.65625 19.15234375 C17.18470049 30.87515967 16.19572615 41.56571684 10.03125 51.83984375 C6.02593624 57.43550268 1.58055275 61.39230093 -5.30859375 62.7265625 C-11.55044364 63.08076584 -15.87873515 62.23602118 -20.59765625 58.046875 C-29.3897614 48.50734256 -31.99809319 38.6776958 -31.6875 25.83984375 C-30.64994056 14.70966067 -25.59443418 8.03670112 -17.65625 0.65234375 C-12.01653126 -1.90149115 -5.86390206 -2.12077791 0 0 Z " fill="#D1BBF1" transform="translate(653.34375,537.84765625)"/>
<path d="M0 0 C5.49156139 3.84631628 8.6342093 9.26124101 11.125 15.375 C12.90515132 25.69987766 11.86348971 35.9954127 7 45.375 C2.66809484 50.42888936 -2.1724488 55.39419239 -8.984375 56.40625 C-15.59134927 56.61164816 -19.63366411 56.09402294 -24.640625 51.625 C-25.17171875 51.08875 -25.7028125 50.5525 -26.25 50 C-26.9925 49.278125 -27.735 48.55625 -28.5 47.8125 C-34.34317316 38.421686 -35.37513835 28.80132814 -34.25 18 C-33.34061524 14.65940292 -32.07545703 11.92951352 -30.25 9 C-29.610625 7.906875 -28.97125 6.81375 -28.3125 5.6875 C-21.3022249 -3.44710088 -10.09237804 -5.57685899 0 0 Z " fill="#D1BCF2" transform="translate(771.25,583)"/>
<path d="M0 0 C3.92861947 -0.02506235 7.85720679 -0.04302799 11.78588867 -0.05493164 C13.76547892 -0.0623244 15.74504701 -0.07504274 17.72460938 -0.08789062 C25.21191564 -0.10684583 32.55999977 0.13948622 40 1 C40 1.33 40 1.66 40 2 C34.03325384 3.32594359 28.07416385 3.0884587 22 3 C22 2.34 22 1.68 22 1 C14.74 1 7.48 1 0 1 C0 0.67 0 0.34 0 0 Z " fill="#CDC3E4" transform="translate(721,500)"/>
</svg>
